<?xml version="1.0" standalone="no"?>
<!DOCTYPE svg PUBLIC "-//W3C//DTD SVG 20010904//EN"
 "http://www.w3.org/TR/2001/REC-SVG-20010904/DTD/svg10.dtd">
<svg version="1.0" xmlns="http://www.w3.org/2000/svg"
 width="512.000000pt" height="512.000000pt" viewBox="0 0 512.000000 512.000000"
 preserveAspectRatio="xMidYMid meet">
<metadata>
Created by potrace 1.11, written by Peter Selinger 2001-2013
</metadata>
<g transform="translate(0.000000,512.000000) scale(0.100000,-0.100000)"
fill="#000000" stroke="none">
<path d="M0 2560 l0 -2560 2560 0 2560 0 0 610 0 610 -203 0 -204 0 -168 130
c-104 81 -174 129 -183 125 -58 -22 -207 -37 -317 -32 -148 7 -252 33 -370 91
-167 83 -279 197 -366 371 -136 274 -144 642 -20 942 105 255 325 437 605 501
110 25 357 22 461 -6 105 -28 245 -98 322 -161 225 -184 344 -512 313 -866
-11 -129 -21 -180 -52 -275 -47 -145 -144 -300 -241 -385 -28 -24 -49 -46 -46
-49 5 -5 443 -321 458 -330 8 -5 11 523 11 1918 l0 1926 -2560 0 -2560 0 0
-2560z m1325 781 c104 -27 244 -97 322 -160 225 -184 344 -512 313 -866 -11
-129 -21 -180 -52 -275 -47 -145 -144 -300 -241 -385 -31 -27 -48 -48 -42 -53
6 -5 116 -85 245 -177 129 -93 246 -177 259 -187 23 -18 18 -18 -211 -18
l-235 0 -168 130 c-104 81 -174 129 -183 125 -58 -22 -207 -37 -317 -32 -148
7 -252 33 -370 91 -167 83 -279 197 -366 371 -162 327 -139 784 55 1084 125
194 327 323 574 367 109 19 314 12 417 -15z m1845 -131 l0 -130 -350 0 -350 0
0 -285 0 -285 325 0 325 0 0 -130 0 -130 -325 0 -325 0 0 -390 0 -390 -155 0
-155 0 0 935 0 935 505 0 505 0 0 -130z"/>
<path d="M1000 3094 c-192 -35 -339 -145 -421 -318 -63 -132 -74 -188 -74
-376 0 -189 11 -244 75 -379 49 -103 153 -211 243 -254 219 -105 506 -53 655
119 57 66 116 186 139 281 27 117 25 367 -5 485 -55 223 -190 375 -376 424
-55 15 -195 25 -236 18z"/>
<path d="M4030 3094 c-192 -35 -339 -145 -421 -318 -63 -132 -74 -188 -74
-376 0 -189 11 -244 75 -379 49 -103 153 -211 243 -254 219 -105 506 -53 655
119 57 66 116 186 139 281 27 117 25 367 -5 485 -55 223 -190 375 -376 424
-55 15 -195 25 -236 18z"/>
</g>
</svg>
